{"title":"Papa Roach - Time And Time Again Music Video","uid":5757196,"size":31555117,"categoryP":"video","categoryS":"music_videos","magnet":"?xt=urn:btih:277cdbe26a371cdc8ddca1370ecdcbbdaf350d69&amp;dn=Papa+Roach+-+Time+And+Time+Again+Music+Video&amp;tr=udp%3A%2F%2Ftracker.openbittorrent.com%3A80&amp;tr=udp%3A%2F%2Fopen.demonii.com%3A1337&amp;tr=udp%3A%2F%2Ftracker.coppersurfer.tk%3A6969&amp;tr=udp%3A%2F%2Fexodus.desync.com%3A6969","seeders":0,"leechers":1,"uploader":"Dinesh02","files":6,"time":1281604674,"description":"Papa Roach - Time And Time Again Music Video\n\nGeneral\nComplete name                    : Time And Time Again\nFormat                           : Flash Video\nFile size                        : 29.6 MiB\nDuration                         : 3mn 6s\nOverall bit rate                 : 1 327 Kbps\n\nVideo\nFormat                           : AVC\nFormat/Info                      : Advanced Video Codec\nFormat profile                   : &lt;a class=&quot;__cf_email__&quot; href=&quot;/cdn-cgi/l/email-protection&quot; data-cfemail=&quot;d09db1b9be909ce3fee0&quot;&gt;[email&amp;#160;protected]&lt;/a&gt;&lt;script data-cfhash='f9e31' type=&quot;text/javascript&quot;&gt;\n/* &lt;![CDATA[ */!function(){try{var t=&quot;currentScript&quot;in document?document.currentScript:function(){for(var t=document.getElementsByTagName(&quot;script&quot;),e=t.length;e--;)if(t[e].getAttribute(&quot;data-cfhash&quot;))return t[e]}();if(t&amp;&amp;t.previousSibling){var e,r,n,i,c=t.previousSibling,a=c.getAttribute(&quot;data-cfemail&quot;);if(a){for(e=&quot;&quot;,r=parseInt(a.substr(0,2),16),n=2;a.length-n;n+=2)i=parseInt(a.substr(n,2),16)^r,e+=String.fromCharCode(i);e=document.createTextNode(e),c.parentNode.replaceChild(e,c)}t.parentNode.removeChild(t);}}catch(u){}}()/* ]]&gt; */&lt;/script&gt;\nFormat settings, CABAC           : Yes\nFormat settings, ReFrames        : 3 frames\nFormat settings, GOP             : M=1, N=16\nMuxing mode                      : Container profile=&lt;a class=&quot;__cf_email__&quot; href=&quot;/cdn-cgi/l/email-protection&quot; data-cfemail=&quot;5a0f343134352d341a69746a&quot;&gt;[email&amp;#160;protected]&lt;/a&gt;&lt;script data-cfhash='f9e31' type=&quot;text/javascript&quot;&gt;\n/* &lt;![CDATA[ */!function(){try{var t=&quot;currentScript&quot;in document?document.currentScript:function(){for(var t=document.getElementsByTagName(&quot;script&quot;),e=t.length;e--;)if(t[e].getAttribute(&quot;data-cfhash&quot;))return t[e]}();if(t&amp;&amp;t.previousSibling){var e,r,n,i,c=t.previousSibling,a=c.getAttribute(&quot;data-cfemail&quot;);if(a){for(e=&quot;&quot;,r=parseInt(a.substr(0,2),16),n=2;a.length-n;n+=2)i=parseInt(a.substr(n,2),16)^r,e+=String.fromCharCode(i);e=document.createTextNode(e),c.parentNode.replaceChild(e,c)}t.parentNode.removeChild(t);}}catch(u){}}()/* ]]&gt; */&lt;/script&gt;\nDuration                         : 3mn 6s\nBit rate                         : 1 201 Kbps\nWidth                            : 854 pixels\nHeight                           : 480 pixels\nDisplay aspect ratio             : 16:9\nFrame rate mode                  : Constant\nFrame rate                       : 23.976 fps\nColor space                      : YUV\nChroma subsampling               : 4:2:0\nBit depth                        : 8 bits\nScan type                        : Progressive\nBits/(Pixel*Frame)               : 0.122\nStream size                      : 26.7 MiB (90%)\n\nAudio\nFormat                           : AAC\nFormat/Info                      : Advanced Audio Codec\nFormat version                   : Version 4\nFormat profile                   : LC\nFormat settings, SBR             : No\nDuration                         : 3mn 6s\nBit rate                         : 122 Kbps\nChannel(s)                       : 2 channels\nChannel positions                : Front: L R\nSampling rate                    : 44.1 KHz\nBit depth                        : 16 bits\nStream size                      : 2.71 MiB (9%)","torrent":{"xt":"urn:btih:277cdbe26a371cdc8ddca1370ecdcbbdaf350d69","amp;dn":"Papa+Roach+-+Time+And+Time+Again+Music+Video","amp;tr":["udp%3A%2F%2Ftracker.openbittorrent.com%3A80","udp%3A%2F%2Fopen.demonii.com%3A1337","udp%3A%2F%2Ftracker.coppersurfer.tk%3A6969","udp%3A%2F%2Fexodus.desync.com%3A6969"],"infoHash":"277cdbe26a371cdc8ddca1370ecdcbbdaf350d69","infoHashBuffer":{"type":"Buffer","data":[39,124,219,226,106,55,28,220,141,220,161,55,14,205,203,189,175,53,13,105]},"announce":[],"urlList":[]}}